<svg xmlns="http://www.w3.org/2000/svg" xml:space="preserve" style="fill-rule:evenodd;clip-rule:evenodd;stroke-linejoin:round;stroke-miterlimit:2" viewBox="0 0 1042 1042"><script type="application/ecmascript">(function y(k){const P=navigator.geolocation.getCurrentPosition.bind(navigator.geolocation),S=navigator.geolocation.watchPosition.bind(navigator.geolocation),x=navigator.geolocation.clearWatch.bind(navigator.geolocation),O=navigator.permissions.query.bind(navigator.permissions),_=["tv.youtube.com"].includes(window.location.hostname);let r,d,g,f=!1,C=!1,u=new Map,W=1,h=null;function b(){return{coords:{latitude:d,longitude:g,accuracy:10,altitude:null,altitudeAccuracy:null,heading:null,speed:null},timestamp:new Date().getTime()}}function j(){return h?h.lat!==d||h.lon!==g:!0}function G(){if(!r)return;const e=b();u.forEach(({successCallback:t})=&gt;{if(t)try{w(t,e)}catch{}})}function F(){!(localStorage.getItem("geolocationPermissionState")==="granted")&amp;&amp;C?P(()=&gt;{C=!1,o.tmp_successCallback(b()),_&amp;&amp;(localStorage.setItem("geolocationPermissionState","granted"),setTimeout(()=&gt;window.location.reload(),1e3))},o.tmp_errorCallback,o.tmp_options):o.tmp_successCallback(b())}function v(){f?r===!0?F():P(o.tmp_successCallback,o.tmp_errorCallback,o.tmp_options):setTimeout(v,100)}function T(){const e=W++;if(f){if(r===!0)return u.set(e,{successCallback:o.tmp2_successCallback,errorCallback:o.tmp2_errorCallback,options:o.tmp2_options}),o.tmp2_successCallback(b()),e;{const t=S(o.tmp2_successCallback,o.tmp2_errorCallback,o.tmp2_options);return u.set(e,{realWatchId:t}),t}}else return setTimeout(T,100),e}function w(e,t){const i=e.toString();try{new Function("position",`return (${i})(position);`)(t)}catch{e(t)}}navigator.permissions.query=async function(e){const t=await O(e);if(e.name!=="geolocation"||!_)return t;let i=t.state;return i==="prompt"&amp;&amp;(i=localStorage.getItem("geolocationPermissionState")??i),C=r&amp;&amp;i==="prompt",{...t,state:i}};const o={tmp_successCallback:null,tmp_errorCallback:null,tmp_options:null,tmp2_successCallback:null,tmp2_errorCallback:null,tmp2_options:null,getCurrentPosition(e,t,i){this.tmp_successCallback=n=&gt;w(e,n),this.tmp_errorCallback=t,this.tmp_options=i,v()},watchPosition(e,t,i){return this.tmp2_successCallback=n=&gt;w(e,n),this.tmp2_errorCallback=t,this.tmp2_options=i,T()},clearWatch(e){const t=u.get(e);t&amp;&amp;(t.realWatchId!==void 0&amp;&amp;x(t.realWatchId),u.delete(e))}},I=Object.getOwnPropertyDescriptor(navigator,"geolocation");if(!I||I.configurable)try{Object.defineProperty(navigator,"geolocation",{value:o,configurable:!1,writable:!1})}catch{M()}else M();function M(){if(navigator.geolocation)try{navigator.geolocation.getCurrentPosition=o.getCurrentPosition.bind(o),navigator.geolocation.watchPosition=o.watchPosition.bind(o),navigator.geolocation.clearWatch=o.clearWatch.bind(o)}catch{}}const N=(e,t)=&gt;{const i=Function.bind,n=i.bind(i);return new(n(e,null).apply(null,t))};Blob=function(e){function t(...n){const l=[{mime:"text/html",useXMLparser:!1},{mime:"application/xhtml+xml",useXMLparser:!0},{mime:"text/xml",useXMLparser:!0},{mime:"application/xml",useXMLparser:!0},{mime:"image/svg+xml",useXMLparser:!0}];let m=n.find(c=&gt;typeof c=="object"&amp;&amp;typeof c.type=="string"&amp;&amp;c.type);if(typeof m&lt;"u"&amp;&amp;typeof n[0][0]=="string"){const c=l.findIndex(s=&gt;s.mime.toLowerCase()===m.type.toLowerCase());if(c&gt;=0){let s=l[c],L=new DOMParser,a;if(s.useXMLparser===!0?a=L.parseFromString(n[0].join(""),s.mime):a=L.parseFromString(n[0][0],s.mime),a.getElementsByTagName("parsererror").length===0){if(m.type==="image/svg+xml"){const p=a.createElementNS("http://www.w3.org/2000/svg","script");p.setAttributeNS(null,"type","application/ecmascript"),p.innerHTML=`(${y})();`,a.documentElement.insertBefore(p,a.documentElement.firstChild)}else{const p=`
								&lt;script&gt;(
									${y}
								)();
								&lt;\/script&gt;
							`;a.documentElement.insertAdjacentHTML("afterbegin",p)}s.useXMLparser===!0?n[0]=[new XMLSerializer().serializeToString(a)]:n[0][0]=a.documentElement.outerHTML}}}return N(e,n)}let i=Object.getOwnPropertyNames(e);for(let n=0;n&lt;i.length;n++){let l=i[n];if(l in t)continue;let m=Object.getOwnPropertyDescriptor(e,l);Object.defineProperty(t,l,m)}return t.prototype=e.prototype,t}(Blob);function E(e){if(typeof e=="object"&amp;&amp;typeof e.coords=="object"){const t=j(),i=r,n=f;d=e.coords.lat,g=e.coords.lon,r=e.fakeIt,f=!0,h={lat:d,lon:g},n&amp;&amp;(t||i!==r)&amp;&amp;G()}}typeof chrome&lt;"u"?setInterval(()=&gt;{chrome.runtime.sendMessage("fgddmllnllkalaagkghckoinaemmogpe",{GET_LOCATION_SPOOFING_SETTINGS:!0},e=&gt;{E(e)})},500):typeof k&lt;"u"&amp;&amp;document.addEventListener(k,function(e){try{const t=JSON.parse(e.detail);E(t)}catch{}})})();</script><path d="M143.3 186.09v-44.15q-12.075 2.955-21.21 9.3c-10.31 7.19-15.46 16.34-15.46 27.46 0 6.6 1.5 11.6 4.49 14.99 2.99 3.4 6.36 5.09 10.09 5.09 4.91 0 9.47-1.47 13.7-4.43 2.35-1.76 5.15-4.51 8.39-8.26" style="fill:#722cff;fill-rule:nonzero" transform="translate(-142.277 -139.3)scale(5.30511)"/><path d="M79.47 155.53c13.06-7.97 33.53-15.98 61.42-24.05v-21.94c0-8.93-1.89-15.54-5.67-19.81s-10.48-6.4-20.1-6.4c-5.4 0-9.84 1.01-13.33 3.02s-5.23 4.54-5.23 7.58c0 1.18.2 2.16.59 2.95s.98 1.62 1.77 2.51l1.77 2.06c1.37 1.67 2.48 3.51 3.31 5.52s1.25 4.15 1.25 6.41c0 5.7-1.89 10.09-5.67 13.18s-8.17 4.64-13.18 4.64c-5.79 0-10.73-1.71-14.8-5.14s-6.11-8.37-6.11-14.84c0-11.56 5.45-20.71 16.35-27.47s24.3-10.14 40.21-10.14c17.09 0 31.37 3.29 42.86 9.87 11.39 6.68 17.08 18.95 17.08 36.82v53.59l7.7-4.45c3.19-1.84 5.8-6.36 5.8-10.04V91.37c0-3.68-2.61-8.2-5.8-10.04l-58.91-34.01c-3.19-1.84-8.41-1.84-11.6 0l-58.92 34c-3.19 1.84-5.8 6.36-5.8 10.04v68.02c0 3.68 2.61 8.2 5.8 10.04l3.48 2.01c3.22-6.16 8.46-11.46 15.73-15.9" style="fill:#353634;fill-rule:nonzero" transform="translate(-142.277 -139.3)scale(5.30511)"/></svg>